<?xml version="1.0" encoding="UTF-8"?>
<svg xmlns="http://www.w3.org/2000/svg" id="Layer_1" data-name="Layer 1" viewBox="0 0 24 24" width="512" height="512"><path d="M19,2H10c-2.76,0-5,2.24-5,5v6c0,2.76,2.24,5,5,5h9c2.76,0,5-2.24,5-5V7c0-2.76-2.24-5-5-5Zm-9,2h9c1.3,0,2.4,.84,2.82,2H7.18c.41-1.16,1.51-2,2.82-2Zm9,12H10c-1.65,0-3-1.35-3-3v-5h15v5c0,1.65-1.35,3-3,3Zm-2,5c0,.55-.45,1-1,1H5c-2.76,0-5-2.24-5-5v-7.35c0-1.22,.44-2.39,1.25-3.31,.37-.41,1-.45,1.41-.09,.42,.37,.45,1,.09,1.41-.48,.55-.75,1.25-.75,1.98v7.35c0,1.65,1.35,3,3,3h11c.55,0,1,.45,1,1Z" fill="#ffffff"/>
</svg>
