<?xml version="1.0" encoding="UTF-8"?>
<svg xmlns="http://www.w3.org/2000/svg" id="Layer_1" data-name="Layer 1" viewBox="0 0 24 24" width="512" height="512"><path d="M24,19c0,.55-.45,1-1,1h-3v3c0,.55-.45,1-1,1s-1-.45-1-1v-3h-3c-.55,0-1-.45-1-1s.45-1,1-1h3v-3c0-.55,.45-1,1-1s1,.45,1,1v3h3c.55,0,1,.45,1,1Zm-6.06-7.88c.08,.55,.59,.93,1.13,.84,.55-.08,.92-.59,.84-1.13-.57-3.9-3.97-6.83-7.92-6.83-4.41,0-8,3.59-8,8,0,3.98,2.97,7.39,6.91,7.93,.05,0,.09,0,.14,0,.49,0,.92-.36,.99-.87,.07-.55-.31-1.05-.86-1.13-2.96-.4-5.18-2.96-5.18-5.95,0-3.31,2.69-6,6-6,2.96,0,5.51,2.2,5.94,5.12Zm-7.44,.88c0,.83,.67,1.5,1.5,1.5s1.5-.67,1.5-1.5-.67-1.5-1.5-1.5-1.5,.67-1.5,1.5ZM19,0H5C2.24,0,0,2.24,0,5v14c0,2.76,2.24,5,5,5H15c.55,0,1-.45,1-1s-.45-1-1-1H5c-1.65,0-3-1.35-3-3V5c0-1.65,1.35-3,3-3h14c1.65,0,3,1.35,3,3V15c0,.55,.45,1,1,1s1-.45,1-1V5c0-2.76-2.24-5-5-5Z" fill="#ffffff"/>
</svg>
