<?xml version="1.0" encoding="UTF-8"?>
<svg xmlns="http://www.w3.org/2000/svg" id="Layer_1" data-name="Layer 1" viewBox="0 0 24 24">
  <path d="m21,3.5c0-.828.672-1.5,1.5-1.5s1.5.672,1.5,1.5-.672,1.5-1.5,1.5-1.5-.672-1.5-1.5Zm-6,11.5c0,2.206-1.794,4-4,4s-4-1.794-4-4v-4.5c0-2.481,2.019-4.5,4.5-4.5h1.5c.552,0,1,.447,1,1s-.448,1-1,1h-1.5c-1.378,0-2.5,1.121-2.5,2.5v1.037c.589-.341,1.272-.537,2-.537,2.206,0,4,1.794,4,4Zm-2,0c0-1.103-.897-2-2-2s-2,.897-2,2,.897,2,2,2,2-.897,2-2Zm11-5v5c0,2.206-1.794,4-4,4s-4-1.794-4-4v-5c0-2.206,1.794-4,4-4s4,1.794,4,4Zm-2,0c0-1.103-.897-2-2-2s-2,.897-2,2v5c0,1.103.897,2,2,2s2-.897,2-2v-5Zm-17.463,1.909c.597-.628.963-1.477.963-2.409,0-1.93-1.57-3.5-3.5-3.5h-1c-.552,0-1,.447-1,1s.448,1,1,1h1c.827,0,1.5.673,1.5,1.5s-.673,1.5-1.5,1.5c-.552,0-1,.447-1,1s.448,1,1,1c1.103,0,2,.897,2,2s-.897,2-2,2h-1c-.552,0-1,.447-1,1s.448,1,1,1h1c2.206,0,4-1.794,4-4,0-1.243-.57-2.356-1.463-3.091Z" fill="#ffffff"/>
</svg>